<svg xmlns="http://www.w3.org/2000/svg" xmlns:xlink="http://www.w3.org/1999/xlink" width="138.664" height="113.081" viewBox="0 0 138.664 113.081">
  <defs>
    <filter id="Union_1" x="0" y="0" width="138.664" height="113.081" filterUnits="userSpaceOnUse">
      <feOffset dy="3" input="SourceAlpha"/>
      <feGaussianBlur stdDeviation="12" result="blur"/>
      <feFlood flood-opacity="0.161"/>
      <feComposite operator="in" in2="blur"/>
      <feComposite in="SourceGraphic"/>
    </filter>
    <filter id="Ellipse_38" x="40.5" y="70.831" width="21" height="21" filterUnits="userSpaceOnUse">
      <feOffset dy="3" input="SourceAlpha"/>
      <feGaussianBlur stdDeviation="3" result="blur-2"/>
      <feFlood flood-opacity="0.161"/>
      <feComposite operator="in" in2="blur-2"/>
      <feComposite in="SourceGraphic"/>
    </filter>
    <filter id="Ellipse_39" x="47.5" y="69.831" width="21" height="21" filterUnits="userSpaceOnUse">
      <feOffset dy="3" input="SourceAlpha"/>
      <feGaussianBlur stdDeviation="3" result="blur-3"/>
      <feFlood flood-opacity="0.161"/>
      <feComposite operator="in" in2="blur-3"/>
      <feComposite in="SourceGraphic"/>
    </filter>
    <filter id="Ellipse_40" x="58.5" y="74.831" width="21" height="21" filterUnits="userSpaceOnUse">
      <feOffset dy="3" input="SourceAlpha"/>
      <feGaussianBlur stdDeviation="3" result="blur-4"/>
      <feFlood flood-opacity="0.161"/>
      <feComposite operator="in" in2="blur-4"/>
      <feComposite in="SourceGraphic"/>
    </filter>
    <filter id="Ellipse_41" x="64.5" y="77.831" width="21" height="21" filterUnits="userSpaceOnUse">
      <feOffset dy="3" input="SourceAlpha"/>
      <feGaussianBlur stdDeviation="3" result="blur-5"/>
      <feFlood flood-opacity="0.161"/>
      <feComposite operator="in" in2="blur-5"/>
      <feComposite in="SourceGraphic"/>
    </filter>
    <filter id="Ellipse_42" x="55.5" y="67.831" width="21" height="21" filterUnits="userSpaceOnUse">
      <feOffset dy="3" input="SourceAlpha"/>
      <feGaussianBlur stdDeviation="3" result="blur-6"/>
      <feFlood flood-opacity="0.161"/>
      <feComposite operator="in" in2="blur-6"/>
      <feComposite in="SourceGraphic"/>
    </filter>
    <filter id="Ellipse_43" x="69.5" y="70.831" width="21" height="21" filterUnits="userSpaceOnUse">
      <feOffset dy="3" input="SourceAlpha"/>
      <feGaussianBlur stdDeviation="3" result="blur-7"/>
      <feFlood flood-opacity="0.161"/>
      <feComposite operator="in" in2="blur-7"/>
      <feComposite in="SourceGraphic"/>
    </filter>
    <filter id="Ellipse_44" x="63.5" y="68.831" width="21" height="21" filterUnits="userSpaceOnUse">
      <feOffset dy="3" input="SourceAlpha"/>
      <feGaussianBlur stdDeviation="3" result="blur-8"/>
      <feFlood flood-opacity="0.161"/>
      <feComposite operator="in" in2="blur-8"/>
      <feComposite in="SourceGraphic"/>
    </filter>
    <filter id="Ellipse_45" x="41.5" y="78.831" width="21" height="21" filterUnits="userSpaceOnUse">
      <feOffset dy="3" input="SourceAlpha"/>
      <feGaussianBlur stdDeviation="3" result="blur-9"/>
      <feFlood flood-opacity="0.161"/>
      <feComposite operator="in" in2="blur-9"/>
      <feComposite in="SourceGraphic"/>
    </filter>
    <filter id="Ellipse_46" x="53.5" y="80.831" width="21" height="21" filterUnits="userSpaceOnUse">
      <feOffset dy="3" input="SourceAlpha"/>
      <feGaussianBlur stdDeviation="3" result="blur-10"/>
      <feFlood flood-opacity="0.161"/>
      <feComposite operator="in" in2="blur-10"/>
      <feComposite in="SourceGraphic"/>
    </filter>
    <filter id="Ellipse_47" x="49.5" y="75.831" width="21" height="21" filterUnits="userSpaceOnUse">
      <feOffset dy="3" input="SourceAlpha"/>
      <feGaussianBlur stdDeviation="3" result="blur-11"/>
      <feFlood flood-opacity="0.161"/>
      <feComposite operator="in" in2="blur-11"/>
      <feComposite in="SourceGraphic"/>
    </filter>
    <filter id="Ellipse_48" x="73.5" y="77.831" width="21" height="21" filterUnits="userSpaceOnUse">
      <feOffset dy="3" input="SourceAlpha"/>
      <feGaussianBlur stdDeviation="3" result="blur-12"/>
      <feFlood flood-opacity="0.161"/>
      <feComposite operator="in" in2="blur-12"/>
      <feComposite in="SourceGraphic"/>
    </filter>
    <filter id="Ellipse_49" x="78.5" y="70.831" width="21" height="21" filterUnits="userSpaceOnUse">
      <feOffset dy="3" input="SourceAlpha"/>
      <feGaussianBlur stdDeviation="3" result="blur-13"/>
      <feFlood flood-opacity="0.161"/>
      <feComposite operator="in" in2="blur-13"/>
      <feComposite in="SourceGraphic"/>
    </filter>
  </defs>
  <g id="weather_icon_snow" transform="translate(-301.5 -665.169)">
    <g transform="matrix(1, 0, 0, 1, 301.5, 665.17)" filter="url(#Union_1)">
      <path id="Union_1-2" data-name="Union 1" d="M33.32,20.588q-.626.045-1.264.045a17.6,17.6,0,0,1-3.22-.3A16.984,16.984,0,0,1-2,10.453,17,17,0,0,1,18.61-6.2a17.348,17.348,0,0,1,27.423.7q.809-.078,1.638-.078A17.041,17.041,0,1,1,33.32,20.588Z" transform="translate(38 45.58)" fill="#f3f3f3"/>
    </g>
    <g transform="matrix(1, 0, 0, 1, 301.5, 665.17)" filter="url(#Ellipse_38)">
      <circle id="Ellipse_38-2" data-name="Ellipse 38" cx="1.5" cy="1.5" r="1.5" transform="translate(49.5 76.83)" fill="#fff"/>
    </g>
    <g transform="matrix(1, 0, 0, 1, 301.5, 665.17)" filter="url(#Ellipse_39)">
      <circle id="Ellipse_39-2" data-name="Ellipse 39" cx="1.5" cy="1.5" r="1.5" transform="translate(56.5 75.83)" fill="#fff"/>
    </g>
    <g transform="matrix(1, 0, 0, 1, 301.5, 665.17)" filter="url(#Ellipse_40)">
      <circle id="Ellipse_40-2" data-name="Ellipse 40" cx="1.5" cy="1.5" r="1.5" transform="translate(67.5 80.83)" fill="#fff"/>
    </g>
    <g transform="matrix(1, 0, 0, 1, 301.5, 665.17)" filter="url(#Ellipse_41)">
      <circle id="Ellipse_41-2" data-name="Ellipse 41" cx="1.5" cy="1.5" r="1.5" transform="translate(73.5 83.83)" fill="#fff"/>
    </g>
    <g transform="matrix(1, 0, 0, 1, 301.5, 665.17)" filter="url(#Ellipse_42)">
      <circle id="Ellipse_42-2" data-name="Ellipse 42" cx="1.5" cy="1.5" r="1.5" transform="translate(64.5 73.83)" fill="#fff"/>
    </g>
    <g transform="matrix(1, 0, 0, 1, 301.5, 665.17)" filter="url(#Ellipse_43)">
      <circle id="Ellipse_43-2" data-name="Ellipse 43" cx="1.5" cy="1.5" r="1.5" transform="translate(78.5 76.83)" fill="#fff"/>
    </g>
    <g transform="matrix(1, 0, 0, 1, 301.5, 665.17)" filter="url(#Ellipse_44)">
      <circle id="Ellipse_44-2" data-name="Ellipse 44" cx="1.5" cy="1.5" r="1.5" transform="translate(72.5 74.83)" fill="#fff"/>
    </g>
    <g transform="matrix(1, 0, 0, 1, 301.5, 665.17)" filter="url(#Ellipse_45)">
      <circle id="Ellipse_45-2" data-name="Ellipse 45" cx="1.5" cy="1.5" r="1.5" transform="translate(50.5 84.83)" fill="#fff"/>
    </g>
    <g transform="matrix(1, 0, 0, 1, 301.5, 665.17)" filter="url(#Ellipse_46)">
      <circle id="Ellipse_46-2" data-name="Ellipse 46" cx="1.5" cy="1.5" r="1.5" transform="translate(62.5 86.83)" fill="#fff"/>
    </g>
    <g transform="matrix(1, 0, 0, 1, 301.5, 665.17)" filter="url(#Ellipse_47)">
      <circle id="Ellipse_47-2" data-name="Ellipse 47" cx="1.5" cy="1.5" r="1.5" transform="translate(58.5 81.83)" fill="#fff"/>
    </g>
    <g transform="matrix(1, 0, 0, 1, 301.5, 665.17)" filter="url(#Ellipse_48)">
      <circle id="Ellipse_48-2" data-name="Ellipse 48" cx="1.5" cy="1.5" r="1.5" transform="translate(82.5 83.83)" fill="#fff"/>
    </g>
    <g transform="matrix(1, 0, 0, 1, 301.5, 665.17)" filter="url(#Ellipse_49)">
      <circle id="Ellipse_49-2" data-name="Ellipse 49" cx="1.5" cy="1.5" r="1.5" transform="translate(87.5 76.83)" fill="#fff"/>
    </g>
  </g>
</svg>
